# xmcd
#
# Track frame offsets:
#	150
#	13710
#	28304
#	41375
#	55562
#	69580
#	84565
#	97678
#	110828
#	124756
#	138163
#	151481
#	164954
#	179551
#	193819
#	208242
#	220795
#	234405
#	246985
#	257973
#
# Disc length: 3575 seconds
#
# Revision: 1
# Processed by: cddbd v1.4PL0 Copyright (c) Steve Scherf et al.
# Submitted via: dBpowerAMP V4.0
#
DISCID=270df514
DTITLE=Billy Holiday - Billy Holiday
DYEAR=1900
DGENRE=Blues
TTITLE0=Let 's Call A Heart Heart
TTITLE1=If You Were Mine
TTITLE2=St Louis Blues
TTITLE3=These Foolish Things (Remind Me Of You)
TTITLE4=More Than You Know - With Teddy Wilson
TTITLE5=Loveless Love
TTITLE6=You Go To My Head
TTITLE7=East Of The Sun
TTITLE8=Twenty Four Hours
TTITLE9=How Deep Is The Ocean
TTITLE10=I Wish I Had You
TTITLE11=Under A Blue Jungle Moon
TTITLE12=Easy Living
TTITLE13=Nice Work If You Can Get It - With Teddy Wilson
TTITLE14=God Bless The Child
TTITLE15=Yankee Doodle Never Went To Town
TTITLE16=There Is No Greater Love
TTITLE17=Yesterdays
TTITLE18=Romance In The Dark
TTITLE19=Please Keep Me In Your Dreams
EXTD=
EXTT0=
EXTT1=
EXTT2=
EXTT3=
EXTT4=
EXTT5=
EXTT6=
EXTT7=
EXTT8=
EXTT9=
EXTT10=
EXTT11=
EXTT12=
EXTT13=
EXTT14=
EXTT15=
EXTT16=
EXTT17=
EXTT18=
EXTT19=
PLAYORDER=
